<svg width="25" height="24" viewBox="0 0 25 24" fill="none" xmlns="http://www.w3.org/2000/svg">
<path fill-rule="evenodd" clip-rule="evenodd" d="M6.35593 3.61739C7.6902 2.72585 9.25888 2.25 10.8636 2.25H10.8636C13.0154 2.25014 15.0791 3.105 16.6006 4.62655C18.1222 6.14811 18.9771 8.21174 18.9772 10.3635V10.3636C18.9772 11.9683 18.5013 13.537 17.6098 14.8713C17.4533 15.1054 17.2853 15.3305 17.1065 15.5459L22.0303 20.4697C22.3232 20.7626 22.3232 21.2374 22.0303 21.5303C21.7374 21.8232 21.2626 21.8232 20.9697 21.5303L16.0459 16.6065C15.4235 17.1232 14.724 17.5467 13.9685 17.8596C12.486 18.4737 10.8546 18.6344 9.28071 18.3213C7.70683 18.0082 6.26113 17.2355 5.12642 16.1008C3.99171 14.9661 3.21897 13.5204 2.9059 11.9465C2.59284 10.3726 2.75352 8.74122 3.36761 7.25866C3.98171 5.77609 5.02165 4.50892 6.35593 3.61739ZM10.8636 3.75C9.55552 3.75001 8.27687 4.13789 7.18928 4.86459C6.10168 5.5913 5.254 6.6242 4.75343 7.83268C4.25287 9.04116 4.1219 10.3709 4.37708 11.6538C4.63227 12.9368 5.26215 14.1152 6.18708 15.0401C7.11201 15.965 8.29044 16.5949 9.57335 16.8501C10.8563 17.1053 12.186 16.9743 13.3945 16.4738C14.603 15.9732 15.6359 15.1255 16.3626 14.0379C17.0893 12.9503 17.4772 11.6717 17.4772 10.3636M10.8636 3.75C12.6176 3.75012 14.2997 4.44695 15.54 5.68721C16.7802 6.92748 17.4771 8.6096 17.4772 10.3636" fill="#C4C4CC"/>
</svg>
